<svg width="680" height="680" viewBox="0 0 680 680" fill="none" xmlns="http://www.w3.org/2000/svg">
<path d="M339.5 240V238.933H338.5V240H339.5ZM339.5 234.667V232.533H338.5V234.667H339.5ZM339.5 228.267V226.133H338.5V228.267H339.5ZM339.5 221.867V219.733H338.5V221.867H339.5ZM339.5 215.467V213.333H338.5V215.467H339.5ZM339.5 209.067V208H338.5V209.067H339.5Z" fill="#2BD4DB"/>
<path d="M337.5 440.016L337.534 441.082L338.533 441.051L338.5 439.984L337.5 440.016ZM337.667 445.349L337.734 447.482L338.733 447.451L338.666 445.318L337.667 445.349ZM337.867 451.749L337.934 453.882L338.933 453.851L338.866 451.718L337.867 451.749ZM338.067 458.149L338.134 460.282L339.133 460.251L339.066 458.118L338.067 458.149ZM338.267 464.549L338.334 466.682L339.333 466.651L339.266 464.518L338.267 464.549ZM338.467 470.949L338.5 472.016L339.5 471.984L339.466 470.918L338.467 470.949Z" fill="#2BD4DB"/>
<rect x="130.5" y="227.5" width="419" height="225" rx="7.5" fill="#80E5E9"/>
<rect x="130.5" y="227.5" width="419" height="225" rx="7.5" fill="#D5F6F8"/>
<rect x="130.5" y="227.5" width="419" height="225" rx="7.5" stroke="#0C1142"/>
<path d="M372.642 262.111C373.394 262.111 374.003 261.491 374.003 260.725C374.003 259.96 373.394 259.34 372.642 259.34C371.89 259.34 371.28 259.96 371.28 260.725C371.28 261.491 371.89 262.111 372.642 262.111Z" fill="#0C1142"/>
<path d="M294.324 261.747C293.715 261.492 293.177 261.127 292.783 260.653C292.353 260.179 292.031 259.632 291.78 259.012C291.529 258.393 291.422 257.7 291.422 256.971C291.422 256.241 291.529 255.549 291.744 254.929C291.959 254.309 292.282 253.725 292.712 253.288C293.142 252.814 293.643 252.449 294.216 252.194C294.825 251.939 295.47 251.793 296.223 251.793C296.868 251.793 297.405 251.866 297.907 252.048C298.408 252.231 298.838 252.486 299.232 252.777C299.626 253.069 299.913 253.47 300.128 253.908C300.379 254.345 300.522 254.856 300.594 255.366H298.086C298.014 254.929 297.799 254.564 297.477 254.272C297.154 253.981 296.76 253.835 296.294 253.835C295.506 253.835 294.933 254.127 294.539 254.673C294.145 255.22 293.966 255.986 293.966 256.934C293.966 257.882 294.145 258.611 294.539 259.195C294.897 259.778 295.506 260.033 296.294 260.033C296.832 260.033 297.262 259.887 297.584 259.632C297.907 259.341 298.122 258.939 298.229 258.356H300.737C300.701 258.867 300.558 259.377 300.343 259.815C300.128 260.252 299.841 260.653 299.447 261.018C299.089 261.346 298.623 261.638 298.122 261.82C297.584 262.002 297.011 262.112 296.366 262.112C295.614 262.148 294.933 262.002 294.324 261.747Z" fill="#0C1142"/>
<path d="M304.75 253.287C305.108 252.776 305.502 252.375 305.932 252.12C306.362 251.865 306.899 251.719 307.58 251.719C308.082 251.719 308.548 251.828 308.942 252.011C309.336 252.193 309.694 252.448 309.981 252.776C310.267 253.105 310.482 253.506 310.661 253.943C310.84 254.381 310.912 254.891 310.912 255.438V261.855H308.333V255.803C308.333 255.256 308.189 254.818 307.903 254.49C307.616 254.162 307.186 253.98 306.649 253.98C306.075 253.98 305.61 254.198 305.251 254.6C304.893 255.001 304.678 255.548 304.678 256.24V261.855H302.099V248.109H304.678V253.287H304.75Z" fill="#0C1142"/>
<path d="M315.14 261.744C314.531 261.489 313.993 261.125 313.563 260.651C313.133 260.177 312.811 259.63 312.596 258.973C312.381 258.317 312.273 257.661 312.273 256.931C312.273 256.202 312.381 255.509 312.632 254.89C312.882 254.27 313.205 253.723 313.599 253.249C314.029 252.775 314.531 252.41 315.104 252.155C315.677 251.9 316.322 251.754 317.038 251.754C317.827 251.754 318.507 251.9 319.081 252.191C319.69 252.483 320.155 252.884 320.585 253.395C320.979 253.905 321.302 254.561 321.517 255.254C321.732 255.983 321.839 256.786 321.839 257.661H314.817C314.925 258.426 315.175 259.046 315.57 259.484C315.964 259.921 316.537 260.14 317.289 260.14C317.791 260.14 318.185 260.031 318.507 259.812C318.794 259.593 319.045 259.301 319.152 258.937H321.696C321.624 259.374 321.445 259.775 321.23 260.177C320.979 260.578 320.693 260.906 320.335 261.197C319.976 261.489 319.511 261.744 319.009 261.89C318.507 262.073 317.934 262.145 317.325 262.145C316.501 262.145 315.785 262 315.14 261.744ZM315.534 254.306C315.175 254.671 314.96 255.218 314.817 255.838H319.116C319.081 255.218 318.866 254.707 318.507 254.306C318.149 253.905 317.648 253.723 317.074 253.723C316.394 253.759 315.892 253.942 315.534 254.306Z" fill="#0C1142"/>
<path d="M325.673 261.747C325.063 261.492 324.526 261.127 324.132 260.653C323.702 260.179 323.38 259.632 323.129 259.012C322.878 258.393 322.771 257.7 322.771 256.971C322.771 256.241 322.878 255.549 323.093 254.929C323.308 254.309 323.63 253.725 324.06 253.288C324.49 252.814 324.992 252.449 325.565 252.194C326.174 251.939 326.819 251.793 327.571 251.793C328.216 251.793 328.754 251.866 329.255 252.048C329.757 252.231 330.187 252.486 330.581 252.777C330.975 253.069 331.262 253.47 331.477 253.908C331.727 254.345 331.871 254.856 331.942 255.366H329.434C329.363 254.929 329.148 254.564 328.825 254.272C328.503 253.981 328.109 253.835 327.643 253.835C326.855 253.835 326.282 254.127 325.887 254.673C325.493 255.22 325.314 255.986 325.314 256.934C325.314 257.882 325.493 258.611 325.887 259.195C326.246 259.778 326.855 260.033 327.643 260.033C328.18 260.033 328.61 259.887 328.933 259.632C329.255 259.341 329.47 258.939 329.578 258.356H332.05C332.014 258.867 331.871 259.377 331.656 259.815C331.441 260.252 331.154 260.653 330.76 261.018C330.402 261.346 329.936 261.638 329.434 261.82C328.897 262.002 328.324 262.112 327.679 262.112C326.962 262.148 326.282 262.002 325.673 261.747Z" fill="#0C1142"/>
<path d="M336.027 258.537V261.855H333.483V248.109H336.027V255.73L339.467 252.011H342.548L338.965 255.766L342.978 261.855H339.861L337.138 257.371L336.027 258.537Z" fill="#0C1142"/>
<path d="M345.807 261.747C345.198 261.492 344.661 261.127 344.195 260.653C343.765 260.179 343.407 259.632 343.156 259.012C342.905 258.393 342.798 257.7 342.798 256.971C342.798 256.241 342.905 255.549 343.156 254.929C343.407 254.309 343.765 253.725 344.195 253.288C344.625 252.814 345.162 252.449 345.807 252.194C346.416 251.939 347.097 251.793 347.849 251.793C348.602 251.793 349.283 251.939 349.892 252.194C350.501 252.449 351.038 252.814 351.504 253.288C351.934 253.762 352.292 254.309 352.543 254.929C352.794 255.549 352.901 256.241 352.901 256.971C352.901 257.7 352.794 258.393 352.543 259.012C352.292 259.632 351.934 260.216 351.504 260.653C351.074 261.127 350.537 261.492 349.892 261.747C349.283 262.002 348.602 262.148 347.849 262.148C347.097 262.148 346.416 262.002 345.807 261.747ZM349.677 259.268C350.107 258.684 350.322 257.919 350.322 256.934C350.322 255.95 350.107 255.184 349.677 254.601C349.247 254.017 348.638 253.689 347.849 253.689C347.061 253.689 346.452 253.981 346.022 254.601C345.592 255.184 345.377 255.986 345.377 256.934C345.377 257.882 345.592 258.684 346.022 259.268C346.452 259.851 347.061 260.143 347.849 260.143C348.638 260.143 349.247 259.851 349.677 259.268Z" fill="#0C1142"/>
<path d="M360.425 260.69H360.353C360.031 261.127 359.636 261.492 359.242 261.747C358.812 262.002 358.275 262.112 357.594 262.112C356.52 262.112 355.695 261.783 355.086 261.164C354.513 260.507 354.227 259.669 354.227 258.575V252.012H356.77V258.137C356.77 258.721 356.914 259.158 357.164 259.45C357.415 259.742 357.845 259.924 358.383 259.924C358.992 259.924 359.457 259.705 359.816 259.304C360.174 258.903 360.353 258.356 360.353 257.7V252.012H362.933V261.856H360.461V260.69H360.425Z" fill="#0C1142"/>
<path d="M365.405 252.009V248.91H367.913V252.009H369.561V253.723H367.913V258.937C367.913 259.302 367.984 259.557 368.163 259.703C368.343 259.849 368.558 259.922 368.88 259.922H369.382C369.453 259.922 369.561 259.922 369.632 259.885V261.854C369.489 261.854 369.382 261.891 369.202 261.891C369.059 261.891 368.88 261.927 368.701 261.927H368.02C367.698 261.927 367.411 261.891 367.089 261.818C366.766 261.745 366.515 261.635 366.265 261.453C366.014 261.271 365.799 261.015 365.656 260.724C365.512 260.432 365.405 260.031 365.405 259.557V253.723H364.079V252.009H365.405Z" fill="#0C1142"/>
<path d="M377.729 261.711C377.192 261.455 376.726 261.091 376.332 260.617C375.938 260.143 375.651 259.596 375.472 258.976C375.293 258.356 375.186 257.663 375.186 256.898C375.186 256.132 375.293 255.476 375.472 254.819C375.687 254.199 375.974 253.616 376.332 253.179C376.726 252.705 377.192 252.34 377.729 252.085C378.267 251.829 378.912 251.684 379.628 251.684C380.703 251.684 381.599 251.975 382.279 252.522C382.96 253.069 383.39 253.871 383.569 254.892H382.423C382.279 254.163 381.993 253.58 381.491 253.215C381.025 252.85 380.416 252.668 379.664 252.668C379.091 252.668 378.625 252.777 378.195 252.996C377.801 253.215 377.443 253.507 377.192 253.908C376.941 254.272 376.726 254.746 376.619 255.257C376.475 255.767 376.439 256.314 376.439 256.898C376.439 257.481 376.511 258.028 376.654 258.538C376.798 259.049 376.977 259.486 377.264 259.887C377.514 260.289 377.873 260.58 378.267 260.799C378.661 261.018 379.162 261.127 379.7 261.127C380.524 261.127 381.205 260.872 381.706 260.398C382.208 259.924 382.494 259.268 382.602 258.465H383.712C383.605 259.596 383.211 260.471 382.494 261.164C381.814 261.82 380.882 262.148 379.7 262.148C378.912 262.112 378.267 261.966 377.729 261.711Z" fill="#0C1142"/>
<path d="M387.296 261.711C386.723 261.455 386.257 261.091 385.863 260.617C385.469 260.143 385.182 259.596 384.967 258.976C384.752 258.356 384.645 257.663 384.645 256.898C384.645 256.132 384.752 255.476 384.967 254.819C385.182 254.199 385.469 253.616 385.863 253.179C386.257 252.705 386.723 252.34 387.296 252.085C387.869 251.829 388.478 251.684 389.195 251.684C389.911 251.684 390.52 251.829 391.093 252.085C391.631 252.34 392.132 252.705 392.527 253.179C392.921 253.653 393.207 254.199 393.422 254.819C393.637 255.439 393.709 256.132 393.709 256.898C393.709 257.663 393.601 258.32 393.422 258.976C393.207 259.596 392.921 260.179 392.527 260.617C392.132 261.091 391.667 261.455 391.093 261.711C390.556 261.966 389.911 262.112 389.195 262.112C388.514 262.112 387.869 261.966 387.296 261.711ZM390.628 260.799C391.058 260.58 391.38 260.289 391.667 259.887C391.953 259.486 392.168 259.049 392.276 258.538C392.419 258.028 392.491 257.481 392.491 256.898C392.491 256.314 392.419 255.767 392.276 255.257C392.132 254.746 391.917 254.309 391.667 253.908C391.38 253.507 391.058 253.215 390.628 252.996C390.198 252.777 389.732 252.668 389.195 252.668C388.657 252.668 388.156 252.777 387.761 252.996C387.367 253.215 387.009 253.507 386.723 253.908C386.436 254.309 386.221 254.746 386.078 255.257C385.934 255.767 385.863 256.314 385.863 256.898C385.863 257.481 385.934 258.028 386.078 258.538C386.221 259.049 386.436 259.486 386.723 259.887C387.009 260.289 387.367 260.58 387.761 260.799C388.156 261.018 388.657 261.127 389.195 261.127C389.732 261.127 390.234 261.018 390.628 260.799Z" fill="#0C1142"/>
<path d="M396.539 251.9V253.395H396.575C396.897 252.884 397.291 252.483 397.757 252.155C398.223 251.827 398.832 251.681 399.548 251.681C400.157 251.681 400.695 251.827 401.16 252.119C401.626 252.41 401.949 252.884 402.164 253.468H402.199C402.522 252.884 402.952 252.447 403.489 252.119C404.027 251.79 404.636 251.645 405.316 251.645C405.746 251.645 406.105 251.717 406.463 251.863C406.821 252.009 407.144 252.191 407.394 252.447C407.645 252.702 407.86 253.03 408.003 253.431C408.147 253.832 408.218 254.27 408.218 254.744V261.854H407.072V254.89C407.072 254.16 406.893 253.613 406.499 253.249C406.105 252.884 405.603 252.738 405.03 252.738C404.671 252.738 404.313 252.811 404.027 252.921C403.704 253.067 403.418 253.249 403.203 253.468C402.988 253.686 402.773 254.015 402.629 254.343C402.486 254.707 402.414 255.072 402.414 255.509V261.854H401.232V254.89C401.232 254.16 401.053 253.613 400.659 253.249C400.301 252.884 399.835 252.738 399.262 252.738C398.903 252.738 398.581 252.811 398.258 252.957C397.936 253.103 397.649 253.285 397.363 253.541C397.112 253.796 396.897 254.087 396.754 254.452C396.61 254.78 396.539 255.181 396.539 255.582V261.854H395.356V251.9H396.539Z" fill="#0C1142"/>
<path d="M281.748 256.97L286.334 248.802C286.442 248.62 286.442 248.438 286.334 248.255C286.227 248.109 286.048 248 285.868 248H276.41C276.231 248 276.052 248.109 275.944 248.255L271.072 256.678C270.964 256.86 270.964 257.079 271.072 257.225L275.944 265.647C276.052 265.83 276.231 265.903 276.41 265.903H285.868C286.048 265.903 286.227 265.793 286.334 265.647C286.442 265.465 286.442 265.283 286.334 265.101L281.748 256.97ZM281.139 255.876L277.342 249.094H284.973L281.139 255.876ZM276.374 249.641L280.494 256.97L276.374 264.298L272.147 256.97L276.374 249.641ZM277.342 264.809L281.139 258.027L284.937 264.809H277.342Z" fill="#0C1142"/>
<rect x="64.5" y="283.5" width="131" height="147" rx="7.5" fill="white" stroke="#0C1142"/>
<path d="M126.43 367.131L158 337.5M117.598 367.934L91 354M121.613 365.525L116.5 337.5M117.598 374.357L89 391.5M126.43 375.468L153.5 399.5M128.036 371.949L172 365.525M121.613 376.766L119.5 399.5" stroke="#2BD4DB" stroke-linecap="round" stroke-linejoin="round"/>
<circle cx="117" cy="338" r="5.5" fill="white" stroke="#2BD4DB"/>
<circle cx="158" cy="337" r="5.5" fill="#D5F6F8" stroke="#2BD4DB"/>
<circle cx="172" cy="365" r="5.5" fill="white" stroke="#2BD4DB"/>
<circle cx="155" cy="401" r="5.5" fill="#D5F6F8" stroke="#2BD4DB"/>
<circle cx="119" cy="401" r="5.5" fill="white" stroke="#0C1142"/>
<circle cx="89" cy="392" r="5.5" fill="#D5F6F8" stroke="#2BD4DB"/>
<circle cx="91" cy="354" r="5.5" fill="white" stroke="#0C1142"/>
<circle cx="122" cy="371" r="8.5" fill="#0C1142" stroke="#0C1142"/>
<circle cx="122" cy="371" r="4.5" fill="#FFFFC8" stroke="#0C1142"/>
<path d="M83.836 309.12C86.26 309.12 87.748 307.68 87.748 305.304V304.512H84.016V305.712H86.176C86.128 306.9 85.468 307.872 83.86 307.872C82.06 307.872 81.208 306.612 81.208 304.776V304.68C81.208 302.796 82.18 301.548 83.86 301.548C84.976 301.548 85.744 302.04 85.936 303.18H87.532C87.304 301.128 85.672 300.288 83.836 300.288C81.328 300.288 79.552 302.112 79.552 304.668V304.764C79.552 307.296 81.088 309.12 83.836 309.12ZM91.1607 308.076C90.4407 308.076 90.1527 307.728 90.1527 307.2C90.1527 306.432 90.8607 306.18 91.9647 306.18H92.7087V306.804C92.7087 307.608 92.0487 308.076 91.1607 308.076ZM90.8127 309.12C91.7727 309.12 92.3247 308.772 92.7327 308.232V309H94.1607V304.884C94.1607 303.168 93.0567 302.592 91.6527 302.592C90.2487 302.592 89.0847 303.204 88.9647 304.668H90.3687C90.4407 304.044 90.8127 303.684 91.5687 303.684C92.4207 303.684 92.7087 304.104 92.7087 304.944V305.268H91.9287C90.1287 305.268 88.7127 305.796 88.7127 307.26C88.7127 308.568 89.6607 309.12 90.8127 309.12ZM97.9609 309.108C98.4049 309.108 98.7169 309.036 98.9449 308.952V307.8C98.7409 307.884 98.5249 307.92 98.2369 307.92C97.7809 307.92 97.5169 307.668 97.5169 307.116V303.816H98.8969V302.724H97.5169V301.344H96.0649V302.724H95.2249V303.816H96.0649V307.248C96.0649 308.436 96.7129 309.108 97.9609 309.108ZM103.015 309.12C104.623 309.12 105.691 308.4 105.895 307.08H104.491C104.383 307.692 103.927 308.04 103.051 308.04C101.971 308.04 101.371 307.368 101.323 306.18H105.919V305.76C105.919 303.516 104.515 302.592 102.955 302.592C101.167 302.592 99.8346 303.888 99.8346 305.832V305.928C99.8346 307.908 101.167 309.12 103.015 309.12ZM101.347 305.208C101.491 304.236 102.079 303.648 102.955 303.648C103.855 303.648 104.407 304.128 104.479 305.208H101.347ZM108.394 309H109.882L111.154 304.776L112.318 309H113.794L115.762 302.724H114.346L113.038 307.26L111.814 302.724H110.602L109.27 307.26L108.022 302.724H106.474L108.394 309ZM118.688 308.076C117.968 308.076 117.68 307.728 117.68 307.2C117.68 306.432 118.388 306.18 119.492 306.18H120.236V306.804C120.236 307.608 119.576 308.076 118.688 308.076ZM118.34 309.12C119.3 309.12 119.852 308.772 120.26 308.232V309H121.688V304.884C121.688 303.168 120.584 302.592 119.18 302.592C117.776 302.592 116.612 303.204 116.492 304.668H117.896C117.968 304.044 118.34 303.684 119.096 303.684C119.948 303.684 120.236 304.104 120.236 304.944V305.268H119.456C117.656 305.268 116.24 305.796 116.24 307.26C116.24 308.568 117.188 309.12 118.34 309.12ZM123.873 311.148H125.301L128.721 302.724H127.305L125.769 306.768L124.101 302.724H122.529L125.013 308.364L123.873 311.148Z" fill="#0C1142"/>
<rect x="204.5" y="283.5" width="131" height="147" rx="7.5" fill="white" stroke="#0C1142"/>
<path d="M301.5 344.666V376.067C301.5 379.865 299.956 383.887 297.503 387.87C295.053 391.848 291.721 395.746 288.206 399.289C281.175 406.373 273.459 411.982 270.736 413.887C270.268 414.214 269.694 414.228 269.214 413.922C266.461 412.172 258.758 407.036 251.75 400.148C244.716 393.234 238.5 384.671 238.5 376.067V344.666C238.5 343.898 239.076 343.239 239.851 343.12C242.492 342.718 247.722 341.754 253.213 339.806C258.693 337.861 264.499 334.913 268.229 330.506C268.64 330.021 269.302 329.755 270 329.755C270.698 329.755 271.36 330.021 271.771 330.506C275.501 334.913 281.307 337.861 286.787 339.806C292.278 341.754 297.508 342.718 300.149 343.12C300.924 343.239 301.5 343.898 301.5 344.666Z" fill="#C0F2F4" stroke="#2BD4DB"/>
<path d="M295.234 346.453C296.242 346.615 297 347.477 297 348.498V375.376C297 388.776 276.015 404.683 271.046 408.261C270.407 408.721 269.577 408.74 268.918 408.308C263.885 405.009 243 390.415 243 375.376V348.498C243 347.477 243.758 346.615 244.766 346.453C249.329 345.717 261.584 343.162 267.767 336.234C268.857 335.012 271.143 335.012 272.233 336.234C278.416 343.162 290.671 345.717 295.234 346.453Z" fill="white"/>
<path d="M261.5 368.5L261.5 358.999C261.5 358.999 261.333 350.332 270 350.332C278.667 350.332 278.5 358.999 278.5 358.999V368.5" stroke="#2BD4DB" stroke-miterlimit="10" stroke-linecap="round" stroke-linejoin="round"/>
<path d="M254.5 388V371C254.5 369.619 255.619 368.5 257 368.5H283C284.381 368.5 285.5 369.619 285.5 371V388C285.5 389.381 284.381 390.5 283 390.5H257C255.619 390.5 254.5 389.381 254.5 388Z" fill="#80E5E9"/>
<path d="M254.5 388V371C254.5 369.619 255.619 368.5 257 368.5H283C284.381 368.5 285.5 369.619 285.5 371V388C285.5 389.381 284.381 390.5 283 390.5H257C255.619 390.5 254.5 389.381 254.5 388Z" fill="#D5F6F8"/>
<path d="M254.5 388V371C254.5 369.619 255.619 368.5 257 368.5H283C284.381 368.5 285.5 369.619 285.5 371V388C285.5 389.381 284.381 390.5 283 390.5H257C255.619 390.5 254.5 389.381 254.5 388Z" fill="url(#paint0_radial)" fill-opacity="0.35"/>
<path d="M254.5 388V371C254.5 369.619 255.619 368.5 257 368.5H283C284.381 368.5 285.5 369.619 285.5 371V388C285.5 389.381 284.381 390.5 283 390.5H257C255.619 390.5 254.5 389.381 254.5 388Z" fill="url(#paint1_radial)" fill-opacity="0.8"/>
<path d="M254.5 388V371C254.5 369.619 255.619 368.5 257 368.5H283C284.381 368.5 285.5 369.619 285.5 371V388C285.5 389.381 284.381 390.5 283 390.5H257C255.619 390.5 254.5 389.381 254.5 388Z" fill="#0C1142"/>
<path d="M254.5 388V371C254.5 369.619 255.619 368.5 257 368.5H283C284.381 368.5 285.5 369.619 285.5 371V388C285.5 389.381 284.381 390.5 283 390.5H257C255.619 390.5 254.5 389.381 254.5 388Z" stroke="#0C1142"/>
<path d="M221.58 304.392V301.656H222.864C223.884 301.656 224.496 301.992 224.496 302.976V303.024C224.496 303.936 223.932 304.392 222.864 304.392H221.58ZM219.984 309H221.58V305.532H222.6L224.844 309H226.572L224.16 305.292C225.228 305.016 226.068 304.332 226.068 302.988V302.94C226.068 301.188 224.748 300.42 222.864 300.42H219.984V309ZM228.471 301.692C228.951 301.692 229.335 301.332 229.335 300.864C229.335 300.384 228.951 300.024 228.471 300.024C227.991 300.024 227.607 300.384 227.607 300.864C227.607 301.332 227.991 301.692 228.471 301.692ZM227.763 309H229.215V302.724H227.763V309ZM233.133 309.12C234.741 309.12 235.641 308.388 235.641 307.116C235.641 305.784 234.765 305.424 233.289 305.196C232.293 305.028 231.993 304.848 231.993 304.392C231.993 303.948 232.365 303.648 232.989 303.648C233.661 303.648 233.985 303.912 234.105 304.488H235.449C235.293 303.072 234.273 302.592 232.989 302.592C231.813 302.592 230.637 303.216 230.637 304.476C230.637 305.652 231.249 306.12 232.905 306.384C233.829 306.54 234.249 306.732 234.249 307.248C234.249 307.776 233.901 308.052 233.121 308.052C232.269 308.052 231.945 307.68 231.873 307.044H230.505C230.565 308.376 231.513 309.12 233.133 309.12ZM236.915 309H238.367V305.916L240.719 309H242.399L239.759 305.604L242.195 302.724H240.611L238.367 305.484V299.82H236.915V309ZM246.255 309H247.707V305.244C247.707 304.284 248.367 303.804 249.087 303.804C249.795 303.804 250.203 304.2 250.203 305.124V309H251.655V305.244C251.655 304.284 252.315 303.804 253.035 303.804C253.755 303.804 254.151 304.2 254.151 305.124V309H255.603V305.028C255.603 303.3 254.667 302.592 253.515 302.592C252.735 302.592 251.871 302.94 251.391 303.72C251.079 302.94 250.431 302.592 249.615 302.592C248.691 302.592 248.007 303.096 247.707 303.684V302.724H246.255V309ZM259.262 308.076C258.542 308.076 258.254 307.728 258.254 307.2C258.254 306.432 258.962 306.18 260.066 306.18H260.81V306.804C260.81 307.608 260.15 308.076 259.262 308.076ZM258.914 309.12C259.874 309.12 260.426 308.772 260.834 308.232V309H262.262V304.884C262.262 303.168 261.158 302.592 259.754 302.592C258.35 302.592 257.186 303.204 257.066 304.668H258.47C258.542 304.044 258.914 303.684 259.67 303.684C260.522 303.684 260.81 304.104 260.81 304.944V305.268H260.03C258.23 305.268 256.814 305.796 256.814 307.26C256.814 308.568 257.762 309.12 258.914 309.12ZM263.927 309H265.379V305.304C265.379 304.308 266.039 303.804 266.855 303.804C267.719 303.804 268.103 304.236 268.103 305.184V309H269.555V305.052C269.555 303.324 268.667 302.592 267.407 302.592C266.375 302.592 265.679 303.108 265.379 303.72V302.724H263.927V309ZM273.219 308.076C272.499 308.076 272.211 307.728 272.211 307.2C272.211 306.432 272.919 306.18 274.023 306.18H274.767V306.804C274.767 307.608 274.107 308.076 273.219 308.076ZM272.871 309.12C273.831 309.12 274.383 308.772 274.791 308.232V309H276.219V304.884C276.219 303.168 275.115 302.592 273.711 302.592C272.307 302.592 271.143 303.204 271.023 304.668H272.427C272.499 304.044 272.871 303.684 273.627 303.684C274.479 303.684 274.767 304.104 274.767 304.944V305.268H273.987C272.187 305.268 270.771 305.796 270.771 307.26C270.771 308.568 271.719 309.12 272.871 309.12ZM280.608 307.632C279.672 307.632 278.952 306.912 278.952 305.748V305.652C278.952 304.512 279.576 303.732 280.656 303.732C281.7 303.732 282.348 304.44 282.348 305.628V305.712C282.348 306.912 281.616 307.632 280.608 307.632ZM280.56 311.304C282.504 311.304 283.74 310.38 283.752 308.532V302.724H282.3V303.684C281.94 303.06 281.316 302.592 280.284 302.592C278.664 302.592 277.464 303.912 277.464 305.676V305.76C277.464 307.572 278.676 308.748 280.248 308.748C281.172 308.748 281.952 308.184 282.3 307.584V308.508C282.3 309.636 281.676 310.2 280.548 310.2C279.6 310.2 279.12 309.84 279 309.216H277.536C277.704 310.416 278.592 311.304 280.56 311.304ZM288.237 309.12C289.845 309.12 290.913 308.4 291.117 307.08H289.713C289.605 307.692 289.149 308.04 288.273 308.04C287.193 308.04 286.593 307.368 286.545 306.18H291.141V305.76C291.141 303.516 289.737 302.592 288.177 302.592C286.389 302.592 285.057 303.888 285.057 305.832V305.928C285.057 307.908 286.389 309.12 288.237 309.12ZM286.569 305.208C286.713 304.236 287.301 303.648 288.177 303.648C289.077 303.648 289.629 304.128 289.701 305.208H286.569ZM292.438 309H293.89V305.244C293.89 304.284 294.55 303.804 295.27 303.804C295.978 303.804 296.386 304.2 296.386 305.124V309H297.838V305.244C297.838 304.284 298.498 303.804 299.218 303.804C299.938 303.804 300.334 304.2 300.334 305.124V309H301.786V305.028C301.786 303.3 300.85 302.592 299.698 302.592C298.918 302.592 298.054 302.94 297.574 303.72C297.262 302.94 296.614 302.592 295.798 302.592C294.874 302.592 294.19 303.096 293.89 303.684V302.724H292.438V309ZM306.214 309.12C307.822 309.12 308.89 308.4 309.094 307.08H307.69C307.582 307.692 307.126 308.04 306.25 308.04C305.17 308.04 304.57 307.368 304.522 306.18H309.118V305.76C309.118 303.516 307.714 302.592 306.154 302.592C304.366 302.592 303.034 303.888 303.034 305.832V305.928C303.034 307.908 304.366 309.12 306.214 309.12ZM304.546 305.208C304.69 304.236 305.278 303.648 306.154 303.648C307.054 303.648 307.606 304.128 307.678 305.208H304.546ZM310.415 309H311.867V305.304C311.867 304.308 312.527 303.804 313.343 303.804C314.207 303.804 314.591 304.236 314.591 305.184V309H316.043V305.052C316.043 303.324 315.155 302.592 313.895 302.592C312.863 302.592 312.167 303.108 311.867 303.72V302.724H310.415V309ZM319.852 309.108C320.296 309.108 320.608 309.036 320.836 308.952V307.8C320.632 307.884 320.416 307.92 320.128 307.92C319.672 307.92 319.408 307.668 319.408 307.116V303.816H320.788V302.724H319.408V301.344H317.956V302.724H317.116V303.816H317.956V307.248C317.956 308.436 318.604 309.108 319.852 309.108Z" fill="#0C1142"/>
<g clip-path="url(#clip0)">
<rect x="484.5" y="283.5" width="131" height="147" rx="7.5" fill="white" stroke="#0C1142"/>
<path d="M504.978 380.998L547.519 355.487C549.261 354.443 551.435 354.443 553.177 355.487L595.718 380.998C597.985 382.358 597.985 385.642 595.718 387.002L553.177 412.513C551.435 413.557 549.261 413.557 547.519 412.513L504.978 387.002C502.711 385.642 502.711 382.358 504.978 380.998Z" fill="#D5F6F8" stroke="#2BD4DB"/>
<path d="M504.978 368.045L547.519 342.534C549.261 341.49 551.435 341.49 553.177 342.534L595.718 368.045C597.985 369.404 597.985 372.689 595.718 374.049L553.177 399.559C551.435 400.604 549.261 400.604 547.519 399.559L504.978 374.049C502.711 372.689 502.711 369.404 504.978 368.045Z" fill="white" stroke="#0C1142"/>
<path d="M547.005 328.63L504.463 354.141C501.549 355.888 501.549 360.112 504.463 361.859L547.005 387.37C549.063 388.604 551.633 388.604 553.691 387.37L596.232 361.859C599.147 360.112 599.147 355.888 596.232 354.141L553.691 328.63C551.633 327.396 549.063 327.396 547.005 328.63Z" fill="white" stroke="#7ADFE3" stroke-linecap="round"/>
<path d="M542.817 367.934L550.348 363.417L557.879 367.934L552.406 371.216C551.139 371.975 549.558 371.975 548.291 371.216L542.817 367.934Z" fill="#0C1142"/>
<path d="M536.032 363.998C535.384 363.61 535.384 362.671 536.032 362.283L542.133 358.625L549.664 363.141L542.133 367.657L536.032 363.998Z" fill="#0C1142"/>
<path d="M551.033 363.141L558.564 358.625L564.665 362.283C565.313 362.671 565.313 363.61 564.665 363.998L558.564 367.657L551.033 363.141Z" fill="#0C1142"/>
<path d="M551.033 353.559L558.564 349.042L564.665 352.701C565.313 353.089 565.313 354.028 564.665 354.416L558.564 358.075L551.033 353.559Z" fill="#0C1142"/>
<path d="M542.817 348.762L548.291 345.479C549.558 344.72 551.139 344.72 552.406 345.479L557.879 348.762L550.348 353.278L542.817 348.762Z" fill="#0C1142"/>
<path d="M536.032 354.416C535.384 354.028 535.384 353.089 536.032 352.701L542.133 349.042L549.664 353.559L542.133 358.075L536.032 354.416Z" fill="#0C1142"/>
<path d="M542.817 358.348L550.348 353.832L557.879 358.348L550.348 362.864L542.817 358.348Z" fill="#FFFFC8"/>
<path d="M583.376 359.205C582.729 358.817 582.729 357.878 583.376 357.49L587.934 354.757C588.884 354.187 590.07 354.187 591.02 354.757L595.578 357.49C596.226 357.878 596.226 358.817 595.578 359.205L591.02 361.939C590.07 362.508 588.884 362.508 587.934 361.939L583.376 359.205Z" fill="#2BD4DB"/>
<path d="M499.984 309H501.58V305.736H502.78C504.616 305.736 505.924 304.932 505.924 303.12V303.072C505.924 301.272 504.664 300.42 502.744 300.42H499.984V309ZM501.58 304.584V301.656H502.744C503.764 301.656 504.364 302.052 504.364 303.072V303.12C504.364 304.068 503.8 304.584 502.744 304.584H501.58ZM507.177 309H508.629V305.736C508.629 304.404 509.396 303.996 510.669 303.984V302.628C509.613 302.64 509.025 303.108 508.629 303.9V302.724H507.177V309ZM514.625 309.12C516.473 309.12 517.853 307.848 517.853 305.892V305.796C517.853 303.876 516.473 302.592 514.637 302.592C512.789 302.592 511.409 303.888 511.409 305.832V305.928C511.409 307.836 512.777 309.12 514.625 309.12ZM514.637 307.992C513.533 307.992 512.897 307.188 512.897 305.904V305.808C512.897 304.512 513.557 303.732 514.637 303.732C515.717 303.732 516.365 304.524 516.365 305.82V305.904C516.365 307.188 515.717 307.992 514.637 307.992ZM521.913 309.12C523.617 309.12 524.709 308.1 524.817 306.66H523.485C523.401 307.548 522.741 308.004 521.973 308.004C520.905 308.004 520.233 307.284 520.233 305.916V305.82C520.233 304.524 520.941 303.756 521.937 303.756C522.705 303.756 523.257 304.104 523.377 304.944H524.781C524.613 303.216 523.305 302.592 521.913 302.592C520.161 302.592 518.745 303.852 518.745 305.844V305.94C518.745 307.944 520.113 309.12 521.913 309.12ZM528.827 309.12C530.435 309.12 531.503 308.4 531.707 307.08H530.303C530.195 307.692 529.739 308.04 528.863 308.04C527.783 308.04 527.183 307.368 527.135 306.18H531.731V305.76C531.731 303.516 530.327 302.592 528.767 302.592C526.979 302.592 525.647 303.888 525.647 305.832V305.928C525.647 307.908 526.979 309.12 528.827 309.12ZM527.159 305.208C527.303 304.236 527.891 303.648 528.767 303.648C529.667 303.648 530.219 304.128 530.291 305.208H527.159ZM535.235 309.12C536.843 309.12 537.743 308.388 537.743 307.116C537.743 305.784 536.867 305.424 535.391 305.196C534.395 305.028 534.095 304.848 534.095 304.392C534.095 303.948 534.467 303.648 535.091 303.648C535.763 303.648 536.087 303.912 536.207 304.488H537.551C537.395 303.072 536.375 302.592 535.091 302.592C533.915 302.592 532.739 303.216 532.739 304.476C532.739 305.652 533.351 306.12 535.007 306.384C535.931 306.54 536.351 306.732 536.351 307.248C536.351 307.776 536.003 308.052 535.223 308.052C534.371 308.052 534.047 307.68 533.975 307.044H532.607C532.667 308.376 533.615 309.12 535.235 309.12ZM541.164 309.12C542.772 309.12 543.672 308.388 543.672 307.116C543.672 305.784 542.796 305.424 541.32 305.196C540.324 305.028 540.024 304.848 540.024 304.392C540.024 303.948 540.396 303.648 541.02 303.648C541.692 303.648 542.016 303.912 542.136 304.488H543.48C543.324 303.072 542.304 302.592 541.02 302.592C539.844 302.592 538.668 303.216 538.668 304.476C538.668 305.652 539.28 306.12 540.936 306.384C541.86 306.54 542.28 306.732 542.28 307.248C542.28 307.776 541.932 308.052 541.152 308.052C540.3 308.052 539.976 307.68 539.904 307.044H538.536C538.596 308.376 539.544 309.12 541.164 309.12ZM547.742 309.12C549.59 309.12 550.97 307.848 550.97 305.892V305.796C550.97 303.876 549.59 302.592 547.754 302.592C545.906 302.592 544.526 303.888 544.526 305.832V305.928C544.526 307.836 545.894 309.12 547.742 309.12ZM547.754 307.992C546.65 307.992 546.014 307.188 546.014 305.904V305.808C546.014 304.512 546.674 303.732 547.754 303.732C548.834 303.732 549.482 304.524 549.482 305.82V305.904C549.482 307.188 548.834 307.992 547.754 307.992ZM552.282 309H553.734V305.736C553.734 304.404 554.502 303.996 555.774 303.984V302.628C554.718 302.64 554.13 303.108 553.734 303.9V302.724H552.282V309Z" fill="#0C1142"/>
</g>
<rect x="344.5" y="283.5" width="131" height="147" rx="7.5" fill="white" stroke="#0C1142"/>
<g clip-path="url(#clip1)">
<path d="M391.5 357.512V402.499L381.5 402.488V357.501L391.5 357.512Z" fill="white" stroke="#2BD4DB"/>
<path d="M414.5 357.511V402.499L405.5 402.489V357.501L414.5 357.511Z" fill="white" stroke="#0C1142"/>
<path d="M366.669 352.703L407.15 329.181C408.855 328.19 410.961 328.188 412.668 329.176L453.305 352.702C454.632 353.47 454.087 355.5 452.553 355.5H367.423C365.89 355.5 365.344 353.473 366.669 352.703Z" fill="white" stroke="#2BD4DB"/>
<path d="M428.5 402.5V357.503L438.5 357.5V402.5H428.5Z" fill="white" stroke="#2BD4DB"/>
<path d="M451 410.5H367C366.172 410.5 365.5 409.828 365.5 409V404C365.5 403.172 366.172 402.5 367 402.5H369.935H448.063H448.065L451.013 402.526C451.837 402.534 452.5 403.203 452.5 404.026V409C452.5 409.828 451.828 410.5 451 410.5Z" fill="#C0F2F4" stroke="#2BD4DB"/>
<path d="M447.5 402.5H370.5V399.001C370.5 398.172 371.172 397.5 372.001 397.501L446.001 397.529C446.829 397.529 447.5 398.2 447.5 399.029V402.5Z" fill="white" stroke="#2BD4DB" stroke-miterlimit="10"/>
<path d="M372.5 355.5H447.5V358C447.5 358.828 446.828 359.5 446 359.5H374C373.172 359.5 372.5 358.828 372.5 358V355.5Z" fill="white" stroke="#2BD4DB" stroke-miterlimit="10"/>
</g>
<circle cx="410" cy="344" r="7" fill="#0C1142"/>
<circle cx="410" cy="344" r="3.5" fill="#FFFFC8" stroke="#0C1142"/>
<path d="M363.14 301.728L364.4 305.712H361.868L363.14 301.728ZM359.324 309H360.824L361.496 306.876H364.772L365.456 309H367.112L364.28 300.42H362.192L359.324 309ZM370.874 309.12C372.578 309.12 373.67 308.1 373.778 306.66H372.446C372.362 307.548 371.702 308.004 370.934 308.004C369.866 308.004 369.194 307.284 369.194 305.916V305.82C369.194 304.524 369.902 303.756 370.898 303.756C371.666 303.756 372.218 304.104 372.338 304.944H373.742C373.574 303.216 372.266 302.592 370.874 302.592C369.122 302.592 367.706 303.852 367.706 305.844V305.94C367.706 307.944 369.074 309.12 370.874 309.12ZM379.444 311.148H380.896V302.724H379.444V303.684C379.096 303.06 378.46 302.592 377.44 302.592C375.808 302.592 374.62 303.864 374.62 305.868V305.964C374.62 308.004 375.808 309.12 377.38 309.12C378.304 309.12 379.108 308.568 379.444 307.968V311.148ZM377.74 307.968C376.804 307.968 376.108 307.308 376.108 305.928V305.832C376.108 304.476 376.732 303.732 377.8 303.732C378.856 303.732 379.492 304.416 379.492 305.796V305.892C379.492 307.296 378.748 307.968 377.74 307.968ZM384.722 309.12C385.742 309.12 386.402 308.628 386.714 308.016V309H388.166V302.724H386.714V306.456C386.714 307.452 386.03 307.956 385.25 307.956C384.41 307.956 384.014 307.524 384.014 306.576V302.724H382.562V306.744C382.562 308.412 383.486 309.12 384.722 309.12ZM390.631 301.692C391.111 301.692 391.495 301.332 391.495 300.864C391.495 300.384 391.111 300.024 390.631 300.024C390.151 300.024 389.767 300.384 389.767 300.864C389.767 301.332 390.151 301.692 390.631 301.692ZM389.923 309H391.375V302.724H389.923V309ZM393.145 309H394.597V305.736C394.597 304.404 395.365 303.996 396.637 303.984V302.628C395.581 302.64 394.993 303.108 394.597 303.9V302.724H393.145V309ZM400.558 309.12C402.166 309.12 403.234 308.4 403.438 307.08H402.034C401.926 307.692 401.47 308.04 400.594 308.04C399.514 308.04 398.914 307.368 398.866 306.18H403.462V305.76C403.462 303.516 402.058 302.592 400.498 302.592C398.71 302.592 397.378 303.888 397.378 305.832V305.928C397.378 307.908 398.71 309.12 400.558 309.12ZM398.89 305.208C399.034 304.236 399.622 303.648 400.498 303.648C401.398 303.648 401.95 304.128 402.022 305.208H398.89ZM404.759 309H406.211V305.736C406.211 304.404 406.979 303.996 408.251 303.984V302.628C407.195 302.64 406.607 303.108 406.211 303.9V302.724H404.759V309ZM415.891 309.12C417.511 309.12 418.675 307.896 418.675 305.88V305.784C418.675 303.756 417.463 302.592 415.891 302.592C414.967 302.592 414.187 303.132 413.839 303.732V299.82H412.387V309H413.839V307.992C414.175 308.628 414.895 309.12 415.891 309.12ZM415.531 307.968C414.475 307.968 413.791 307.308 413.791 305.904V305.808C413.791 304.416 414.511 303.732 415.519 303.732C416.467 303.732 417.187 304.416 417.187 305.808V305.904C417.187 307.248 416.599 307.968 415.531 307.968ZM421.973 308.076C421.253 308.076 420.965 307.728 420.965 307.2C420.965 306.432 421.673 306.18 422.777 306.18H423.521V306.804C423.521 307.608 422.861 308.076 421.973 308.076ZM421.625 309.12C422.585 309.12 423.137 308.772 423.545 308.232V309H424.973V304.884C424.973 303.168 423.869 302.592 422.465 302.592C421.061 302.592 419.897 303.204 419.777 304.668H421.181C421.253 304.044 421.625 303.684 422.381 303.684C423.233 303.684 423.521 304.104 423.521 304.944V305.268H422.741C420.941 305.268 419.525 305.796 419.525 307.26C419.525 308.568 420.473 309.12 421.625 309.12ZM426.637 309H428.089V305.304C428.089 304.308 428.749 303.804 429.565 303.804C430.429 303.804 430.813 304.236 430.813 305.184V309H432.265V305.052C432.265 303.324 431.377 302.592 430.117 302.592C429.085 302.592 428.389 303.108 428.089 303.72V302.724H426.637V309ZM433.938 309H435.39V305.916L437.742 309H439.422L436.782 305.604L439.218 302.724H437.634L435.39 305.484V299.82H433.938V309Z" fill="#0C1142"/>
<rect x="210.5" y="472.5" width="259" height="127" rx="7.5" fill="white" stroke="#0C1142"/>
<path d="M210 522.5H227" stroke="#0C1142"/>
<path d="M210 557.5H227" stroke="#0C1142"/>
<path d="M210 569.5H257.5" stroke="#0C1142"/>
<path d="M210 534.5H257.5" stroke="#0C1142"/>
<path d="M210 546.5H220.5" stroke="#0C1142"/>
<path d="M470 522.5H453" stroke="#0C1142"/>
<path d="M470 557.5H453" stroke="#0C1142"/>
<path d="M470 569.5H422.5" stroke="#0C1142"/>
<path d="M470 534.5H422.5" stroke="#0C1142"/>
<path d="M470 546.5H459.5" stroke="#0C1142"/>
<path d="M321.5 528.512V573.499L311.5 573.488V528.501L321.5 528.512Z" fill="white" stroke="#0C1142" stroke-miterlimit="10" stroke-linecap="round" stroke-linejoin="round"/>
<path d="M334.5 573.488V528.501L345.5 528.512V573.499L334.5 573.488Z" stroke="#0C1142" stroke-miterlimit="10" stroke-linecap="round" stroke-linejoin="round"/>
<path d="M297.423 527.398C295.379 527.398 294.651 524.696 296.418 523.669L337.901 499.564C339.142 498.843 340.673 498.842 341.915 499.561L383.556 523.668C385.325 524.692 384.598 527.398 382.553 527.398H297.423Z" fill="white" stroke="#0C1142" stroke-miterlimit="10" stroke-linecap="round" stroke-linejoin="round"/>
<path d="M358.5 573.5V528.503L368.5 528.5V573.5H358.5Z" fill="white" stroke="#0C1142" stroke-miterlimit="10" stroke-linecap="round" stroke-linejoin="round"/>
<path d="M381 581.5H297C296.172 581.5 295.5 580.828 295.5 580V575C295.5 574.172 296.172 573.5 297 573.5H299.935H378.063H378.065L381.013 573.526C381.837 573.534 382.5 574.203 382.5 575.026V580C382.5 580.828 381.828 581.5 381 581.5Z" fill="white" stroke="#0C1142" stroke-miterlimit="10"/>
<path d="M377.5 573.5H300.5V570.001C300.5 569.172 301.172 568.5 302.001 568.501L376.001 568.529C376.829 568.529 377.5 569.2 377.5 570.029V573.5Z" fill="white" stroke="#0C1142" stroke-miterlimit="10"/>
<path d="M302.5 527.5H377.5V529C377.5 529.828 376.828 530.5 376 530.5H304C303.172 530.5 302.5 529.828 302.5 529V527.5Z" fill="white" stroke="#0C1142" stroke-miterlimit="10"/>
<circle cx="340" cy="515" r="7" stroke="#0C1142" stroke-width="2"/>
<path d="M224.032 498H225.64V489.42H224.032V498ZM229.692 498.12C231.3 498.12 232.2 497.388 232.2 496.116C232.2 494.784 231.324 494.424 229.848 494.196C228.852 494.028 228.552 493.848 228.552 493.392C228.552 492.948 228.924 492.648 229.548 492.648C230.22 492.648 230.544 492.912 230.664 493.488H232.008C231.852 492.072 230.832 491.592 229.548 491.592C228.372 491.592 227.196 492.216 227.196 493.476C227.196 494.652 227.808 495.12 229.464 495.384C230.388 495.54 230.808 495.732 230.808 496.248C230.808 496.776 230.46 497.052 229.68 497.052C228.828 497.052 228.504 496.68 228.432 496.044H227.064C227.124 497.376 228.072 498.12 229.692 498.12ZM235.621 498.12C237.229 498.12 238.129 497.388 238.129 496.116C238.129 494.784 237.253 494.424 235.777 494.196C234.781 494.028 234.481 493.848 234.481 493.392C234.481 492.948 234.853 492.648 235.477 492.648C236.149 492.648 236.473 492.912 236.593 493.488H237.937C237.781 492.072 236.761 491.592 235.477 491.592C234.301 491.592 233.125 492.216 233.125 493.476C233.125 494.652 233.737 495.12 235.393 495.384C236.317 495.54 236.737 495.732 236.737 496.248C236.737 496.776 236.389 497.052 235.609 497.052C234.757 497.052 234.433 496.68 234.361 496.044H232.993C233.053 497.376 234.001 498.12 235.621 498.12ZM241.503 498.12C242.523 498.12 243.183 497.628 243.495 497.016V498H244.947V491.724H243.495V495.456C243.495 496.452 242.811 496.956 242.031 496.956C241.191 496.956 240.795 496.524 240.795 495.576V491.724H239.343V495.744C239.343 497.412 240.267 498.12 241.503 498.12ZM249.429 498.12C251.037 498.12 252.105 497.4 252.309 496.08H250.905C250.797 496.692 250.341 497.04 249.465 497.04C248.385 497.04 247.785 496.368 247.737 495.18H252.333V494.76C252.333 492.516 250.929 491.592 249.369 491.592C247.581 491.592 246.249 492.888 246.249 494.832V494.928C246.249 496.908 247.581 498.12 249.429 498.12ZM247.761 494.208C247.905 493.236 248.493 492.648 249.369 492.648C250.269 492.648 250.821 493.128 250.893 494.208H247.761ZM253.63 498H255.082V494.736C255.082 493.404 255.85 492.996 257.122 492.984V491.628C256.066 491.64 255.478 492.108 255.082 492.9V491.724H253.63V498ZM264.763 498.12C266.383 498.12 267.547 496.896 267.547 494.88V494.784C267.547 492.756 266.335 491.592 264.763 491.592C263.839 491.592 263.059 492.132 262.711 492.732V488.82H261.259V498H262.711V496.992C263.047 497.628 263.767 498.12 264.763 498.12ZM264.403 496.968C263.347 496.968 262.663 496.308 262.663 494.904V494.808C262.663 493.416 263.383 492.732 264.391 492.732C265.339 492.732 266.059 493.416 266.059 494.808V494.904C266.059 496.248 265.471 496.968 264.403 496.968ZM270.844 497.076C270.124 497.076 269.836 496.728 269.836 496.2C269.836 495.432 270.544 495.18 271.648 495.18H272.392V495.804C272.392 496.608 271.732 497.076 270.844 497.076ZM270.496 498.12C271.456 498.12 272.008 497.772 272.416 497.232V498H273.844V493.884C273.844 492.168 272.74 491.592 271.336 491.592C269.932 491.592 268.768 492.204 268.648 493.668H270.052C270.124 493.044 270.496 492.684 271.252 492.684C272.104 492.684 272.392 493.104 272.392 493.944V494.268H271.612C269.812 494.268 268.396 494.796 268.396 496.26C268.396 497.568 269.344 498.12 270.496 498.12ZM275.509 498H276.961V494.304C276.961 493.308 277.621 492.804 278.437 492.804C279.301 492.804 279.685 493.236 279.685 494.184V498H281.137V494.052C281.137 492.324 280.249 491.592 278.989 491.592C277.957 491.592 277.261 492.108 276.961 492.72V491.724H275.509V498ZM282.809 498H284.261V494.916L286.613 498H288.293L285.653 494.604L288.089 491.724H286.505L284.261 494.484V488.82H282.809V498Z" fill="#0C1142"/>
<rect x="210.5" y="80.5" width="259" height="127" rx="7.5" fill="white" stroke="#0C1142"/>
<path d="M211 130.5H228" stroke="#0C1142"/>
<path d="M211 165.5H228" stroke="#0C1142"/>
<path d="M211 177.5H258.5" stroke="#0C1142"/>
<path d="M211 142.5H258.5" stroke="#0C1142"/>
<path d="M211 154.5H221.5" stroke="#0C1142"/>
<path d="M469 130.5H452" stroke="#0C1142"/>
<path d="M469 165.5H452" stroke="#0C1142"/>
<path d="M469 177.5H421.5" stroke="#0C1142"/>
<path d="M469 142.5H421.5" stroke="#0C1142"/>
<path d="M469 154.5H458.5" stroke="#0C1142"/>
<path d="M223.984 104H225.424V97.52L228.028 104H228.544L231.1 97.52V104H232.696V95.42H230.584L228.376 101.276L226.12 95.42H223.984V104ZM237.241 104.12C238.849 104.12 239.917 103.4 240.121 102.08H238.717C238.609 102.692 238.153 103.04 237.277 103.04C236.197 103.04 235.597 102.368 235.549 101.18H240.145V100.76C240.145 98.516 238.741 97.592 237.181 97.592C235.393 97.592 234.061 98.888 234.061 100.832V100.928C234.061 102.908 235.393 104.12 237.241 104.12ZM235.573 100.208C235.717 99.236 236.305 98.648 237.181 98.648C238.081 98.648 238.633 99.128 238.705 100.208H235.573ZM241.442 104H242.894V100.736C242.894 99.404 243.662 98.996 244.934 98.984V97.628C243.878 97.64 243.29 98.108 242.894 98.9V97.724H241.442V104ZM248.842 104.12C250.546 104.12 251.638 103.1 251.746 101.66H250.414C250.33 102.548 249.67 103.004 248.902 103.004C247.834 103.004 247.162 102.284 247.162 100.916V100.82C247.162 99.524 247.87 98.756 248.866 98.756C249.634 98.756 250.186 99.104 250.306 99.944H251.71C251.542 98.216 250.234 97.592 248.842 97.592C247.09 97.592 245.674 98.852 245.674 100.844V100.94C245.674 102.944 247.042 104.12 248.842 104.12ZM252.997 104H254.449V100.304C254.449 99.308 255.109 98.804 255.925 98.804C256.789 98.804 257.173 99.236 257.173 100.184V104H258.625V100.052C258.625 98.324 257.737 97.592 256.477 97.592C255.445 97.592 254.749 98.108 254.449 98.72V94.82H252.997V104ZM262.29 103.076C261.57 103.076 261.282 102.728 261.282 102.2C261.282 101.432 261.99 101.18 263.094 101.18H263.838V101.804C263.838 102.608 263.178 103.076 262.29 103.076ZM261.942 104.12C262.902 104.12 263.454 103.772 263.862 103.232V104H265.29V99.884C265.29 98.168 264.186 97.592 262.782 97.592C261.378 97.592 260.214 98.204 260.094 99.668H261.498C261.57 99.044 261.942 98.684 262.698 98.684C263.55 98.684 263.838 99.104 263.838 99.944V100.268H263.058C261.258 100.268 259.842 100.796 259.842 102.26C259.842 103.568 260.79 104.12 261.942 104.12ZM266.954 104H268.406V100.304C268.406 99.308 269.066 98.804 269.882 98.804C270.746 98.804 271.13 99.236 271.13 100.184V104H272.582V100.052C272.582 98.324 271.694 97.592 270.434 97.592C269.402 97.592 268.706 98.108 268.406 98.72V97.724H266.954V104ZM276.391 104.108C276.835 104.108 277.147 104.036 277.375 103.952V102.8C277.171 102.884 276.955 102.92 276.667 102.92C276.211 102.92 275.947 102.668 275.947 102.116V98.816H277.327V97.724H275.947V96.344H274.495V97.724H273.655V98.816H274.495V102.248C274.495 103.436 275.143 104.108 276.391 104.108Z" fill="#0C1142"/>
<rect x="292.5" y="112.5" width="99" height="79" rx="3.5" fill="white" stroke="#0C1142"/>
<circle cx="298" cy="118" r="1.5" stroke="#0C1142"/>
<circle cx="304" cy="118" r="1.5" stroke="#0C1142"/>
<circle cx="310" cy="118" r="1.5" stroke="#0C1142"/>
<path d="M290.199 134.181L292.399 124.5H308.5V136.234C308.5 141.352 304.352 145.5 299.234 145.5C293.288 145.5 288.881 139.979 290.199 134.181Z" fill="white" stroke="#0C1142"/>
<path d="M309.5 124.5H330.5V135C330.5 140.799 325.799 145.5 320 145.5C314.201 145.5 309.5 140.799 309.5 135V124.5Z" fill="white" stroke="#0C1142"/>
<path d="M331.5 124.5H352.5V135C352.5 140.799 347.799 145.5 342 145.5C336.201 145.5 331.5 140.799 331.5 135V124.5Z" fill="white" stroke="#0C1142"/>
<path d="M353.5 124.5H374.5V135C374.5 140.799 369.799 145.5 364 145.5C358.201 145.5 353.5 140.799 353.5 135V124.5Z" fill="white" stroke="#0C1142"/>
<path d="M375.5 124.5H391.601L393.801 134.181C395.119 139.979 390.712 145.5 384.766 145.5C379.648 145.5 375.5 141.352 375.5 136.234V124.5Z" fill="white" stroke="#0C1142"/>
<path d="M308 154.5H326C327.933 154.5 329.5 156.067 329.5 158V191.5H304.5V158C304.5 156.067 306.067 154.5 308 154.5Z" stroke="#0C1142"/>
<path d="M340 154.5H376C377.933 154.5 379.5 156.067 379.5 158V170C379.5 171.933 377.933 173.5 376 173.5H340C338.067 173.5 336.5 171.933 336.5 170V158C336.5 156.067 338.067 154.5 340 154.5Z" stroke="#0C1142"/>
<rect x="267" y="373" width="6" height="12" rx="3" fill="#FFFFC8"/>
<defs>
<radialGradient id="paint0_radial" cx="0" cy="0" r="1" gradientUnits="userSpaceOnUse" gradientTransform="translate(284.909 371.826) rotate(110.23) scale(17.1725 10.2106)">
<stop stop-color="#FFFFC8"/>
<stop offset="1" stop-color="#FFFFC8" stop-opacity="0"/>
</radialGradient>
<radialGradient id="paint1_radial" cx="0" cy="0" r="1" gradientUnits="userSpaceOnUse" gradientTransform="translate(262.636 390.981) rotate(-89.8286) scale(19.2884 12.328)">
<stop stop-color="#FFFFC8"/>
<stop offset="1" stop-color="#FFFFC8" stop-opacity="0"/>
</radialGradient>
<clipPath id="clip0">
<rect x="484" y="283" width="132" height="148" fill="white"/>
</clipPath>
<clipPath id="clip1">
<rect width="100" height="84" fill="white" transform="translate(360 327)"/>
</clipPath>
</defs>
</svg>
